HIERARCHY
ROOT Hips
{
	OFFSET 0.00000 0.00000 0.00000
	CHANNELS 6 Xposition Yposition Zposition Zrotation Yrotation Xrotation 
	JOINT LHipJoint
	{
		OFFSET 0 0 0
		CHANNELS 3 Zrotation Yrotation Xrotation
		JOINT LeftHip
		{
			OFFSET 3.13874 -1.57224 1.49786
			CHANNELS 3 Zrotation Yrotation Xrotation
			JOINT LeftKnee
			{
				OFFSET 2.10955 -5.79594 0.00000
				CHANNELS 3 Zrotation Yrotation Xrotation
				JOINT LeftAnkle
				{
					OFFSET 2.41843 -6.64458 0.00000
					CHANNELS 3 Zrotation Yrotation Xrotation
					JOINT LeftToe
					{
						OFFSET 0.04713 -0.12948 1.66229
						CHANNELS 3 Zrotation Yrotation Xrotation
						End Site
						{
							OFFSET 0.00000 -0.00000 0.85167
						}
					}
				}
			}
		}
	}
	JOINT RHipJoint
	{
		OFFSET 0 0 0
		CHANNELS 3 Zrotation Yrotation Xrotation
		JOINT RightHip
		{
			OFFSET -3.13988 -1.57224 1.49786
			CHANNELS 3 Zrotation Yrotation Xrotation
			JOINT RightKnee
			{
				OFFSET -2.15006 -5.90725 0.00000
				CHANNELS 3 Zrotation Yrotation Xrotation
				JOINT RightAnkle
				{
					OFFSET -2.34496 -6.44273 0.00000
					CHANNELS 3 Zrotation Yrotation Xrotation
					JOINT RightToe
					{
						OFFSET -0.08699 -0.23900 1.55223
						CHANNELS 3 Zrotation Yrotation Xrotation
						End Site
						{
							OFFSET -0.00000 -0.00000 0.80281
						}
					}
				}
			}
		}
	}
	JOINT lowerback
	{
		OFFSET 0 0 0
		CHANNELS 3 Zrotation Yrotation Xrotation
		JOINT Chest
		{
			OFFSET 0.01292 1.96517 -0.16495
			CHANNELS 3 Zrotation Yrotation Xrotation
			JOINT Chest2
			{
				OFFSET 0.02122 1.88666 0.19706
				CHANNELS 3 Zrotation Yrotation Xrotation
				JOINT lowerneck
				{
					OFFSET 0 0 0
					CHANNELS 3 Zrotation Yrotation Xrotation
					JOINT Neck
					{
						OFFSET -0.01683 1.81591 0.07903
						CHANNELS 3 Zrotation Yrotation Xrotation
						JOINT Head
						{
							OFFSET 0.00815 1.74013 -0.47700
							CHANNELS 3 Zrotation Yrotation Xrotation
							End Site
							{
								OFFSET -0.00204 1.83225 -0.16933
							}
						}
					}
				}
				JOINT LeftCollar
				{
					OFFSET 0 0 0
					CHANNELS 3 Zrotation Yrotation Xrotation
					JOINT LeftShoulder
					{
						OFFSET 3.38482 1.41533 0.19802
CHANNELS 3 Zrotation Xrotation Yrotation
						JOINT LeftElbow
						{
OFFSET 0 -4.327120 0.000000
CHANNELS 3 Zrotation Xrotation Yrotation
							JOINT LeftWrist
							{
OFFSET 0 -3.285870 -0.000000
CHANNELS 3 Zrotation Xrotation Yrotation
								JOINT lhand
								{
									OFFSET 0 0 0
CHANNELS 3 Zrotation Xrotation Yrotation
									JOINT LFingers
									{
OFFSET 0 -0.433160 -0.000000
CHANNELS 3 Zrotation Xrotation Yrotation
										End Site
										{
OFFSET 0 -0.349220 -0.000000
										}
									}
								}
								JOINT LThumb
								{
OFFSET 0 0.000000 0.000000
CHANNELS 3 Zrotation Xrotation Yrotation
									End Site
									{
OFFSET 0 -0.354560 0.354560
									}
								}
							}
						}
					}
				}
				JOINT RightCollar
				{
					OFFSET 0 0 0
					CHANNELS 3 Zrotation Yrotation Xrotation
					JOINT RightShoulder
					{
						OFFSET -3.09725 1.62858 -0.14144
CHANNELS 3 Zrotation Xrotation Yrotation
						JOINT RightElbow
						{
OFFSET 0 -4.291040 0.000000
CHANNELS 3 Zrotation Xrotation Yrotation
							JOINT RightWrist
							{
OFFSET 0 -3.227200 -0.000000
CHANNELS 3 Zrotation Xrotation Yrotation
								JOINT rhand
								{
									OFFSET 0 0 0
CHANNELS 3 Zrotation Xrotation Yrotation
									JOINT RFingers
									{
OFFSET 0 -0.543620 -0.000000
CHANNELS 3 Zrotation Xrotation Yrotation
										End Site
										{
OFFSET 0 -0.438280 -0.000000
										}
									}
								}
								JOINT RThumb
								{
OFFSET 0 0.000000 0.000000
CHANNELS 3 Zrotation Xrotation Yrotation
									End Site
									{
OFFSET 0 -0.444970 0.444970
									}
								}
							}
						}
					}
				}
			}
		}
	}
}
MOTION
Frames: 11
Frame Time: 0.008333333333333333
-38.017500 16.292100 5.396800 -106.987000 86.671800 -94.513600 0.000000 0.000000 0.000000 -27.144800 -30.986100 7.549600 0.032500 -1.162900 -3.197200 2.951800 -12.403700 -31.039100 0.298900 -3.515400 -9.717000 0.000000 0.000000 0.000000 37.870500 22.289400 11.033000 -0.561300 4.798700 -13.335200 3.507000 -30.992100 -14.110500 -5.187600 13.592000 -41.627000 5.851000 2.751200 4.692800 -1.565600 4.526200 -9.566300 -5.688500 1.635400 -12.471300 11.024400 6.749900 -15.959000 -4.092500 11.543800 42.531200 -1.173700 6.591900 20.427100 0.000000 0.000000 0.000000 13.832000 16.233800 -27.038500 19.307600 -29.799000 5.182800 29.283900 19.113800 -30.756100 0.000000 0.000000 0.000000 -7.125000 0.000000 0.000000 -2.688600 64.265200 1.254900 0.000000 0.000000 0.000000 -11.743700 12.300900 46.440100 -18.755800 -29.114100 -4.911400 -20.799000 2.363500 21.302000 0.000000 0.000000 0.000000 7.125000 0.000000 -0.000000 8.123600 52.441000 -1.495800
-38.018503 16.292556 5.405551 -108.828269 86.537989 -96.315035 0.000000 0.000000 0.000000 -26.875902 -30.851104 7.319715 0.031862 -1.152509 -3.168487 2.899843 -12.184024 -30.750331 0.325881 -3.668900 -10.146964 0.000000 0.000000 0.000000 37.950258 22.237717 10.865827 -0.554372 4.769440 -13.252069 3.526689 -31.053354 -13.703780 -5.344381 13.761178 -42.289583 5.881354 2.724037 4.899350 -1.505166 4.525106 -9.689993 -5.664071 1.620451 -12.749860 11.087386 6.796296 -15.966292 -4.056313 11.579349 42.528283 -1.156381 6.621069 20.434848 0.000000 0.000000 0.000000 13.861989 16.521658 -26.614006 19.103784 -29.547330 5.081986 28.322247 17.891088 -30.114117 0.000000 0.000000 0.000000 -7.125000 0.000000 0.000000 -3.552811 63.326426 1.579036 0.000000 0.000000 0.000000 -11.808418 12.436169 46.590956 -18.732556 -29.085023 -4.900188 -20.558177 1.960882 20.421564 0.000000 0.000000 0.000000 7.125000 0.000000 0.000000 8.068544 51.489374 -1.296815
-38.018518 16.292271 5.412737 -111.419326 86.431997 -98.905188 0.000000 0.000000 0.000000 -26.754492 -30.836107 7.230075 0.030977 -1.135451 -3.121585 2.855788 -12.264428 -30.516047 0.313027 -3.596723 -9.944751 0.000000 0.000000 0.000000 38.008781 22.107351 10.748119 -0.548186 4.743390 -13.178075 3.516831 -31.020617 -13.859772 -5.311205 13.725831 -42.150198 5.886028 2.688972 5.096518 -1.447942 4.505988 -9.778131 -5.623017 1.601469 -12.985046 11.139261 6.840059 -15.998275 -4.033459 11.636874 42.583720 -1.135770 6.657151 20.493542 0.000000 0.000000 0.000000 13.869015 16.808446 -26.279140 18.955359 -29.363066 5.008991 27.669152 17.003188 -29.462505 0.000000 0.000000 0.000000 -7.125000 0.000000 0.000000 -4.015627 62.468146 1.704656 0.000000 0.000000 0.000000 -11.929432 12.536542 46.858849 -18.693922 -29.036604 -4.881405 -20.766815 1.684436 19.610839 0.000000 0.000000 0.000000 7.125000 0.000000 0.000000 7.607813 50.684496 -1.072728
-38.014093 16.292935 5.417846 -113.499669 86.411780 -100.982129 0.000000 0.000000 0.000000 -26.764778 -30.857810 7.189450 0.029698 -1.112461 -3.058257 2.814271 -12.461712 -30.300989 0.287369 -3.446735 -9.525168 0.000000 0.000000 0.000000 37.994725 21.995191 10.697579 -0.546853 4.737592 -13.161696 3.547869 -31.128801 -13.497206 -5.427438 13.849051 -42.637044 5.859442 2.684424 5.055047 -1.425441 4.492424 -9.734707 -5.575254 1.603062 -12.912344 11.303798 6.912039 -16.064352 -4.139043 11.701094 42.478905 -1.199940 6.685676 20.480952 0.000000 0.000000 0.000000 13.823035 16.850878 -26.028541 18.815900 -29.189208 4.940822 27.766082 17.128611 -29.430411 0.000000 0.000000 0.000000 -7.125000 0.000000 0.000000 -3.881948 62.459808 1.648212 0.000000 0.000000 0.000000 -12.001699 12.510419 46.934235 -18.715115 -29.063161 -4.891704 -19.303218 1.824312 21.741064 0.000000 0.000000 0.000000 7.125000 0.000000 0.000000 9.815897 52.611273 -1.896506
-38.009916 16.293329 5.423593 -115.343232 86.361306 -102.808726 0.000000 0.000000 0.000000 -26.720790 -30.866058 7.125665 0.028848 -1.096484 -3.014249 2.776780 -12.565351 -30.102073 0.273291 -3.362538 -9.289774 0.000000 0.000000 0.000000 38.011478 21.898177 10.636741 -0.545895 4.733424 -13.149917 3.576087 -31.228918 -13.121190 -5.549372 13.976680 -43.144602 5.847826 2.675673 5.046651 -1.396814 4.481182 -9.723696 -5.534252 1.601576 -12.898457 11.492017 7.003872 -16.090969 -4.211779 11.778053 42.364727 -1.250249 6.728417 20.451226 0.000000 0.000000 0.000000 13.787558 16.937197 -25.753732 18.679105 -29.017854 4.874259 27.766425 17.194354 -29.381127 0.000000 0.000000 0.000000 -7.125000 0.000000 0.000000 -3.856855 62.408182 1.633034 0.000000 0.000000 0.000000 -12.067227 12.533740 47.008734 -18.729993 -29.081856 -4.898932 -18.036247 1.859123 23.445606 0.000000 0.000000 0.000000 7.125000 0.000000 0.000000 11.755283 54.110217 -2.671851
-38.005545 16.293400 5.429680 -117.111239 86.289483 -104.551511 0.000000 0.000000 0.000000 -26.649728 -30.873505 7.060660 0.028433 -1.088366 -2.991990 2.743061 -12.608477 -29.920065 0.265539 -3.314743 -9.156329 0.000000 0.000000 0.000000 38.050190 21.802181 10.576258 -0.546069 4.734144 -13.151929 3.598004 -31.310047 -12.777280 -5.660353 14.090592 -43.602253 5.837990 2.663542 5.057242 -1.361765 4.469986 -9.736303 -5.490326 1.598306 -12.924973 11.732615 7.120333 -16.073727 -4.270939 11.875094 42.238873 -1.299317 6.790312 20.408507 0.000000 0.000000 0.000000 13.752141 17.055015 -25.467557 18.551136 -28.856976 4.812301 27.719362 17.264803 -29.331218 0.000000 0.000000 0.000000 -7.125000 0.000000 0.000000 -3.888655 62.343324 1.640681 0.000000 0.000000 0.000000 -12.130892 12.595212 47.080529 -18.731898 -29.084175 -4.899821 -17.375381 1.865659 24.384084 0.000000 0.000000 0.000000 7.125000 0.000000 0.000000 12.849264 54.922463 -3.173990
-38.000057 16.293353 5.435368 -118.793963 86.211382 -106.206421 0.000000 0.000000 0.000000 -26.584790 -30.890746 7.023365 0.028581 -1.091148 -2.999683 2.714406 -12.621682 -29.763525 0.259514 -3.277272 -9.051707 0.000000 0.000000 0.000000 38.097284 21.701509 10.532233 -0.548101 4.742874 -13.176642 3.617219 -31.384665 -12.404832 -5.777505 14.208898 -44.081563 5.817489 2.653456 5.054548 -1.322458 4.460419 -9.751598 -5.435153 1.597622 -12.947017 12.049096 7.266631 -16.007652 -4.331741 11.989574 42.066719 -1.360360 6.870173 20.332420 0.000000 0.000000 0.000000 13.702077 17.165194 -25.185074 18.435347 -28.710923 4.756526 27.716751 17.457049 -29.353701 0.000000 0.000000 0.000000 -7.125000 0.000000 0.000000 -3.903150 62.366203 1.648947 0.000000 0.000000 0.000000 -12.186764 12.668270 47.116140 -18.719866 -29.069057 -4.893971 -17.010365 1.924214 25.077485 0.000000 0.000000 0.000000 7.125000 0.000000 0.000000 13.560706 55.538018 -3.557423
-37.993493 16.293262 5.440479 -120.378324 86.122657 -107.765189 0.000000 0.000000 0.000000 -26.528055 -30.922541 7.037161 0.029699 -1.112387 -3.058094 2.693610 -12.607233 -29.647891 0.254721 -3.247215 -8.967734 0.000000 0.000000 0.000000 38.157200 21.593735 10.505125 -0.551437 4.757089 -13.216965 3.630854 -31.442119 -12.023002 -5.896241 14.326827 -44.563513 5.783397 2.645574 5.053827 -1.274334 4.454277 -9.773953 -5.363753 1.600079 -12.979633 12.446313 7.442689 -15.890608 -4.394950 12.121858 41.849888 -1.434313 6.968866 20.225246 0.000000 0.000000 0.000000 13.633767 17.272521 -24.901476 18.332404 -28.580623 4.707159 27.697655 17.684837 -29.405015 0.000000 0.000000 0.000000 -7.125000 0.000000 0.000000 -3.952223 62.415028 1.674272 0.000000 0.000000 0.000000 -12.238563 12.751589 47.117668 -18.685042 -29.025423 -4.877094 -17.052891 2.047391 25.333679 0.000000 0.000000 0.000000 7.125000 0.000000 0.000000 13.645169 55.799970 -3.665742
-37.985941 16.293229 5.445015 -121.876265 86.027204 -109.245636 0.000000 0.000000 0.000000 -26.492211 -30.977303 7.123019 0.032023 -1.155038 -3.175445 2.682502 -12.590025 -29.585239 0.249250 -3.212409 -8.870595 0.000000 0.000000 0.000000 38.227418 21.476709 10.496905 -0.555502 4.774289 -13.265833 3.637560 -31.477312 -11.646091 -6.012208 14.439935 -45.030320 5.729924 2.641271 5.058173 -1.215911 4.452384 -9.797768 -5.271225 1.606864 -13.018430 12.921210 7.651081 -15.734157 -4.463972 12.281679 41.599044 -1.519022 7.088857 20.100430 0.000000 0.000000 0.000000 13.542228 17.366463 -24.618576 18.243438 -28.467689 4.664668 27.635751 17.891234 -29.450437 0.000000 0.000000 0.000000 -7.125000 0.000000 0.000000 -4.050222 62.446304 1.718812 0.000000 0.000000 0.000000 -12.293670 12.829498 47.092432 -18.622805 -28.947223 -4.846941 -17.722220 2.227063 24.820519 0.000000 0.000000 0.000000 7.125000 0.000000 0.000000 12.707461 55.423621 -3.297742
-37.977423 16.293402 5.448974 -123.299397 85.934960 -110.663619 0.000000 0.000000 0.000000 -26.489255 -31.054805 7.276814 0.035294 -1.211861 -3.331804 2.679396 -12.599498 -29.568693 0.241661 -3.163287 -8.733656 0.000000 0.000000 0.000000 38.298800 21.350014 10.511358 -0.560183 4.794157 -13.322355 3.639359 -31.498475 -11.251576 -6.131053 14.553905 -45.505037 5.652422 2.642605 5.061520 -1.149597 4.455144 -9.812254 -5.156671 1.619329 -13.046877 13.449934 7.899140 -15.547870 -4.519487 12.482114 41.320108 -1.597048 7.233157 19.962871 0.000000 0.000000 0.000000 13.425962 17.430104 -24.350504 18.171713 -28.376476 4.630562 27.546925 18.054833 -29.481325 0.000000 0.000000 0.000000 -7.125000 0.000000 0.000000 -4.173676 62.455188 1.772141 0.000000 0.000000 0.000000 -12.355794 12.880869 47.044076 -18.534141 -28.835591 -4.804098 -18.707549 2.352246 23.767182 0.000000 0.000000 0.000000 7.125000 0.000000 0.000000 11.211799 54.562816 -2.667125
-37.968067 16.293927 5.452426 -124.694312 85.852304 -112.064349 0.000000 0.000000 0.000000 -26.515110 -31.139430 7.462440 0.038792 -1.270482 -3.493290 2.678070 -12.647646 -29.564785 0.232217 -3.101301 -8.560934 0.000000 0.000000 0.000000 38.360837 21.213469 10.547267 -0.566122 4.818924 -13.392863 3.639096 -31.518048 -10.811507 -6.259786 14.675284 -46.015347 5.547750 2.649667 5.059607 -1.078581 4.461391 -9.814555 -5.021162 1.637330 -13.058931 14.025362 8.187293 -15.342734 -4.570666 12.737042 41.035247 -1.667233 7.405446 19.833859 0.000000 0.000000 0.000000 13.290938 17.463381 -24.130575 18.125003 -28.316996 4.608436 27.473727 18.178202 -29.518989 0.000000 0.000000 0.000000 -7.125000 0.000000 0.000000 -4.281658 62.475299 1.820135 0.000000 0.000000 0.000000 -12.425245 12.907388 46.970332 -18.429642 -28.703825 -4.753803 -19.609636 2.352608 22.587844 0.000000 0.000000 0.000000 7.125000 0.000000 0.000000 9.798344 53.541588 -2.075386
